# xmcd CD database file
# Copyright (C) 1996 Ti Kan
#
# Track frame offsets:
# 	187
# 	12592
# 	25835
# 	40970
# 	56370
# 	68522
# 	82247
# 	92897
# 	110265
# 	122250
#
# Disc length: 1768 seconds
#
# Revision: 1
# Processed by: cddbd v1.4b41PL1 Copyright (c) Steve Scherf et al.
# Submitted via: DiscPlay 3.4.1
#
DISCID=7806e60a
DTITLE=The Wagoneers - Good Fortune
DYEAR=1900
DGENRE=
TTITLE0=Sit A Little Closer
TTITLE1=Everybody Call My Baby Honey
TTITLE2=For Favor Senor
TTITLE3=Take Me
TTITLE4=Champagne And Chandeliers
TTITLE5=Good Fortune
TTITLE6=She Wouldn't Have It
TTITLE7=Atlanta
TTITLE8=Test Of TIme
TTITLE9=I Can't Stay
EXTD=
EXTT0=
EXTT1=
EXTT2=
EXTT3=
EXTT4=
EXTT5=
EXTT6=
EXTT7=
EXTT8=
EXTT9=
PLAYORDER=
